<svg xmlns="http://www.w3.org/2000/svg" viewBox="0 0 309.66 178.06"><path style="fill:white" d="M68.6,114.34H51.75l-2.45,6.15H38L54.88,82.88H65.63l16.8,37.61H71.05Zm-8.4-20.92-4.85,12H65Z"></path><path style="fill:white" d="M130.35,115.59c-4.28,4.28-9.34,5.89-15.13,5.89-14.71,0-20.56-9.33-20.56-19.51,0-9.7,6.41-19.93,20.56-19.93a20.36,20.36,0,0,1,14.61,6l-6.58,6.41a11.21,11.21,0,0,0-8-3.23c-7.31,0-10,5.89-10,10.8s2.61,10.43,10,10.43a12.86,12.86,0,0,0,8.87-3.85Z"></path><path style="fill:white" d="M171.32,114.34H154.47L152,120.49H139.55L157.6,82.88h10.74l16.8,37.61H173.77Zm-8.4-20.92-4.85,12h9.65Z"></path><path style="fill:white" d="M211.63,83c13.31,0,19.67,8.24,19.67,18.52s-6.16,19.1-19.67,19.1H195.51V83ZM206,111.64h5.59c6.73,0,9.13-5.06,9.13-10.22s-2.61-9.55-9.13-9.55H206Z"></path><path style="fill:white" d="M272.43,120.61h-30.1V83H271.7v8.92H252.81v5.37h17.79V106H252.81v5.69h19.62Z"></path><path style="fill:white" d="M182.42,155.63l-9.65,11.42h-1.88l-9.39-11.32v22.33H151V140.45h11.11L172,153.18l9.86-12.73H193v37.61H182.42Z"></path><path style="fill:white" d="M206.63,178.06V140.45h10.59v37.61Z"></path><path style="fill:white" d="M254.45,160.63c-.25-4.41-.31-6.18-.31-7.63V140.18h10.64v37.43h-9l-15.62-20.14.15,8.14v12H229.64V140.18h9Z"></path><path style="fill:white" d="M290.08,140.18c13.24,0,19.57,8.2,19.57,18.43s-6.13,19-19.57,19h-16V140.18Zm-5.55,28.49h5.55c6.7,0,9.09-5,9.09-10.17s-2.6-9.5-9.09-9.5h-5.55Z"></path><path style="fill:white" d="M68.6,114.34H51.75l-2.45,6.15H38L54.88,82.88H65.63l16.8,37.61H71.05Zm-8.4-20.92-4.85,12H65Z"></path><path style="fill:white" d="M130.35,115.59c-4.28,4.28-9.34,5.89-15.13,5.89-14.71,0-20.56-9.33-20.56-19.51,0-9.7,6.41-19.93,20.56-19.93a20.36,20.36,0,0,1,14.61,6l-6.58,6.41a11.21,11.21,0,0,0-8-3.23c-7.31,0-10,5.89-10,10.8s2.61,10.43,10,10.43a12.86,12.86,0,0,0,8.87-3.85Z"></path><path style="fill:white" d="M171.32,114.34H154.47L152,120.49H139.55L157.6,82.88h10.74l16.8,37.61H173.77Zm-8.4-20.92-4.85,12h9.65Z"></path><path style="fill:white" d="M211.63,83c13.31,0,19.67,8.24,19.67,18.52s-6.16,19.1-19.67,19.1H195.51V83ZM206,111.64h5.59c6.73,0,9.13-5.06,9.13-10.22s-2.61-9.55-9.13-9.55H206Z"></path><path style="fill:white" d="M272.43,120.61h-30.1V83H271.7v8.92H252.81v5.37h17.79V106H252.81v5.69h19.62Z"></path><path style="fill:white" d="M182.42,155.63l-9.65,11.42h-1.88l-9.39-11.32v22.33H151V140.45h11.11L172,153.18l9.86-12.73H193v37.61H182.42Z"></path><path style="fill:white" d="M206.63,178.06V140.45h10.59v37.61Z"></path><path style="fill:white" d="M254.45,160.63c-.25-4.41-.31-6.18-.31-7.63V140.18h10.64v37.43h-9l-15.62-20.14.15,8.14v12H229.64V140.18h9Z"></path><path style="fill:white" d="M290.08,140.18c13.24,0,19.57,8.2,19.57,18.43s-6.13,19-19.57,19h-16V140.18Zm-5.55,28.49h5.55c6.7,0,9.09-5,9.09-10.17s-2.6-9.5-9.09-9.5h-5.55Z"></path><path style="fill:white" d="M29.2,14.38H0C.15,1.38,13.23,0,14.38,0S29,1.38,29.2,14.38Z"></path><path style="fill:#fa923f" d="M89.42,16.16C87.23,1.19,75,.38,75,.38H17c4.16.93,11.67,4,12.15,13.36l0,0,.31,100.62h4.11l18.5-39h16l18.44,39h2.82S89.82,28.54,89.42,16.16Z"></path></svg>
